<svg xmlns="http://www.w3.org/2000/svg" width="50.159" height="50.159" viewBox="0 0 50.159 50.159"><g transform="translate(-0.159 -0.159)"><rect width="50" height="50" transform="translate(0.159 0.159)" fill="none"/><g transform="translate(3.145 3.145)"><path d="M34.048,10.68c.1.053.209.105.3.165a4.451,4.451,0,1,0-.3-.165ZM11.435,30.306V14.581a4.6,4.6,0,0,1,.374-1.574H5.145A3.081,3.081,0,0,0,2,16.154V27.161a3.08,3.08,0,0,0,3.145,3.145V46.03H14.58V33.451A3.08,3.08,0,0,1,11.435,30.306Zm12.58-18.871A4.717,4.717,0,1,0,19.3,6.717,4.717,4.717,0,0,0,24.014,11.435Zm-12.58,0a4.669,4.669,0,0,0,2.244-.591c.093-.057.2-.107.3-.162a4.7,4.7,0,1,0-2.54.753Zm34.594,14.7V16.154a3.081,3.081,0,0,0-3.145-3.146H36.22a4.556,4.556,0,0,1,.374,1.574v6.383a14.41,14.41,0,0,0-1.572-.093,14.071,14.071,0,0,0-1.572.093v-4.81A3.081,3.081,0,0,0,30.3,13.007H17.724a3.081,3.081,0,0,0-3.145,3.146V27.161a3.08,3.08,0,0,0,3.145,3.145V46.03h8.413A14.144,14.144,0,0,0,46.029,26.139ZM35.021,46.029A11.006,11.006,0,1,1,46.029,35.023,11.023,11.023,0,0,1,35.021,46.029Z" transform="translate(-2 -2)" fill="#c1c1c1"/><g transform="translate(25.159 25.159)"><path d="M33.724,24.29H27.438V18H24.29v6.29H18v3.145h6.29v6.29h3.148v-6.29h6.287Z" transform="translate(-18 -18)" fill="#c1c1c1"/></g></g></g></svg>