<svg xmlns="http://www.w3.org/2000/svg" width="44.267" height="45.398" viewBox="0 0 44.267 45.398">
  <path id="_3507746_card_gift_iconoteka_money_redeem_icon" data-name="3507746_card_gift_iconoteka_money_redeem_icon" d="M40.07,15.9H33.43l.841-.31A7.251,7.251,0,1,0,24.8,6.737L24.134,9.26,23.4,6.781A7.238,7.238,0,0,0,9.348,10.212a7.193,7.193,0,0,0,4.56,5.378l.863.31H8.131A6.22,6.22,0,0,0,2,22.1V40.69a6.22,6.22,0,0,0,6.2,6.2H40.07a6.22,6.22,0,0,0,6.2-6.2V22.1a6.22,6.22,0,0,0-6.2-6.2ZM29.114,8a2.722,2.722,0,0,1,1.948-1.926,2.435,2.435,0,0,1,.775-.111,2.811,2.811,0,0,1,2.745,3.3A2.745,2.745,0,0,1,32.81,11.34l-5.29,1.97ZM13.687,9.26a2.811,2.811,0,0,1,2.745-3.3,2.435,2.435,0,0,1,.775.111A2.722,2.722,0,0,1,19.154,8l1.594,5.4-5.29-1.926A2.745,2.745,0,0,1,13.687,9.26ZM41.84,40.69A1.771,1.771,0,0,1,40.07,42.46H8.2A1.771,1.771,0,0,1,6.427,40.69V29.18H41.84Zm0-15.936H6.427V22.1A1.771,1.771,0,0,1,8.2,20.327H40.07A1.771,1.771,0,0,1,41.84,22.1Z" transform="translate(-2 -1.489)" fill="#c1c1c1"/>
</svg>
