<svg xmlns="http://www.w3.org/2000/svg" width="45.415" height="42.889" viewBox="0 0 45.415 42.889">
  <g id="_5402458_alarm_clock_timepiece_timer_notification_icon" data-name="5402458_alarm_clock_timepiece_timer_notification_icon" transform="translate(-2.994 -2.996)">
    <path id="Path_7053" data-name="Path 7053" d="M43.62,40.039l-3.5-3.5a20.171,20.171,0,1,0-31.871,0l-3.5,3.5a2.532,2.532,0,1,0,3.58,3.58l3.5-3.5a20.171,20.171,0,0,0,24.71,0l3.5,3.5a2.532,2.532,0,1,0,3.58-3.58ZM31.745,26.7H24.18a2.521,2.521,0,0,1-2.521-2.521V16.615a2.521,2.521,0,1,1,5.043,0v5.043h5.043a2.521,2.521,0,1,1,0,5.043Z" transform="translate(1.521 1.52)" fill="#c1c1c1"/>
    <path id="Path_7054" data-name="Path 7054" d="M5.53,10.571A2.521,2.521,0,0,1,3.74,6.259L6.261,3.737a2.532,2.532,0,1,1,3.58,3.58L7.32,9.839A2.521,2.521,0,0,1,5.53,10.571Z" transform="translate(0 0)" fill="#c1c1c1"/>
    <path id="Path_7055" data-name="Path 7055" d="M23.049,10.571a2.521,2.521,0,0,1-1.79-.731L18.737,7.318a2.532,2.532,0,1,1,3.58-3.58l2.521,2.521a2.521,2.521,0,0,1-1.79,4.312Z" transform="translate(22.824)" fill="#c1c1c1"/>
  </g>
</svg>
