<svg xmlns="http://www.w3.org/2000/svg" width="47.122" height="37.697" viewBox="0 0 47.122 37.697">
  <path id="_8541740_chalkboard_teacher_icon" data-name="8541740_chalkboard_teacher_icon" d="M15.313,25.917a1.685,1.685,0,0,0-.52.08,9.713,9.713,0,0,1-3.014.509A9.721,9.721,0,0,1,8.764,26a1.68,1.68,0,0,0-.519-.08A8.247,8.247,0,0,0,0,34.209,3.525,3.525,0,0,0,3.533,37.7H20.025a3.525,3.525,0,0,0,3.534-3.488A8.247,8.247,0,0,0,15.313,25.917Zm-3.534-2.356a7.068,7.068,0,1,0-7.068-7.068A7.068,7.068,0,0,0,11.779,23.561ZM43.586,0H15.313a3.6,3.6,0,0,0-3.534,3.651V7.068a9.317,9.317,0,0,1,4.712,1.311V4.712H42.408v21.2H37.7V21.2H28.271v4.712H22.658a9.384,9.384,0,0,1,2.922,4.712H43.586a3.6,3.6,0,0,0,3.534-3.651V3.651A3.6,3.6,0,0,0,43.586,0Z" transform="translate(0.002)" fill="#fff"/>
</svg>
